PathFileType	4	(X/Y/Z)	D:\TRACE\spotREDO_2-26-24\spot_baseline_4-v60.trc
DataRate	CameraRate	NumFrames	NumMarkers	Units	OrigDataRate	OrigDataStartFrame	OrigNumFrames
100.00	100.00	      14	9	mm	100.00	876	      7000
Frame#	Time	front left toe			Front right toe			aft left toe			aft right toe			Arm			FL body			FR body			AL Body			AR Body			
		X1	Y1	Z1	X2	Y2	Z2	X3	Y3	Z3	X4	Y4	Z4	X5	Y5	Z5	X6	Y6	Z6	X7	Y7	Z7	X8	Y8	Z8	X9	Y9	Z9	

876	8.750	-231.73056	23.79360	-219.67871	333.41769	25.74793	-145.80801	-308.09048	24.78815	316.79434	248.40726	27.63138	353.45053	85.23363	805.80292	-361.79092	-0.10747	546.38788	-347.55176	155.26054	550.89288	-329.48730	-110.89884	558.96265	529.10986	36.60114	559.08875	548.41217	
877	8.760	-231.69556	23.78012	-219.67914	333.39624	25.77872	-145.81496	-308.04666	24.53222	316.79868	248.28671	27.62668	353.44531	85.01779	805.64374	-361.77249	-0.59195	546.45325	-347.76678	154.90828	550.86591	-329.45786	-111.38858	558.79480	529.04041	36.36094	559.02313	548.34729	
878	8.770	-231.68460	23.74349	-219.67677	333.32977	25.74962	-145.87921	-308.06931	24.50831	316.77515	248.22717	27.59027	353.42957	84.62875	805.58075	-361.74930	-1.02287	546.44965	-347.77994	154.40392	550.84137	-329.48923	-111.64184	558.87225	528.88275	36.05391	558.99707	548.28430	
879	8.780	-231.78558	23.72499	-219.63876	333.31512	25.82564	-145.86455	-308.11920	24.51445	316.78976	248.32401	27.71381	353.43634	84.42848	805.51849	-361.72269	-1.45178	546.45874	-347.84067	153.96686	550.83942	-329.53662	-111.81928	558.87781	528.86322	35.70463	559.02899	548.23920	
880	8.790	-231.81274	23.71197	-219.63609	333.24280	25.87280	-145.89432	-308.14063	24.56391	316.77396	248.28831	27.73697	353.42978	83.99603	805.56195	-361.75781	-1.67254	546.44592	-347.79263	152.82086	551.09454	-329.82419	-112.18861	558.85089	528.85071	35.24556	559.05884	548.23096	
881	8.800	-231.91733	23.68358	-219.58650	333.28717	25.90106	-145.86230	-308.12833	24.54972	316.79678	248.22665	27.69155	353.42429	83.28382	805.61365	-361.97308	-1.94185	546.38629	-347.74673	152.58496	551.09149	-329.84631	-112.68953	558.85583	528.79395	34.93945	559.06702	548.16467	
882	8.810	-231.90956	23.68076	-219.60431	333.28949	25.94135	-145.87999	-308.11728	24.54346	316.81583	248.21829	27.79623	353.40866	82.59821	805.65405	-362.16083	-2.26503	546.33032	-347.72314	152.38838	551.08044	-329.85187	-113.14658	558.93597	528.84247	34.63351	559.17926	547.95374	
883	8.820	-231.95782	23.63284	-219.59517	333.13937	25.94994	-145.95889	-308.11670	24.45504	316.82007	248.04573	27.67415	353.36349	82.32256	805.67468	-362.19205	-2.44721	546.28705	-347.72696	151.92964	551.11261	-329.92877	-113.48634	558.90869	528.84625	34.18789	559.23541	548.01428	
884	8.830	-231.99289	23.61604	-219.57736	333.14459	26.03503	-145.94373	-308.16083	24.43146	316.78781	248.19400	27.80901	353.40906	82.13054	805.70813	-362.21616	-2.88398	546.32288	-347.76654	151.59572	551.17883	-329.95746	-113.74232	558.89227	528.76971	33.82647	559.36566	548.02301	
885	8.840	-232.01733	23.58965	-219.60129	333.11624	26.06115	-145.97037	-308.20026	24.45748	316.80740	248.05919	27.78704	353.36945	81.93295	805.69238	-362.16074	-3.21165	546.31549	-347.80334	152.03670	550.93579	-329.74316	-113.97091	558.95679	528.73431	33.52879	559.46417	548.02588	
886	8.850	-232.07112	23.62156	-219.56435	333.22324	25.97082	-145.94221	-308.25555	24.41211	316.82782	248.06064	27.85770	353.35590	81.76545	805.70563	-362.17133	-3.38249	546.28223	-347.85330	151.71443	550.90491	-329.81580	-114.25093	559.06427	528.67548	33.18724	559.48914	547.93701	
887	8.860	-232.07449	23.59104	-219.58577	333.14212	26.05565	-145.94867	-308.24255	24.40071	316.79599	248.06656	27.95182	353.32620	81.50825	805.75482	-362.21103	-3.56344	546.21857	-347.83102	151.50481	550.89075	-329.78442	-114.47436	559.12329	528.63153	32.83697	559.49030	547.84491	
888	8.870	-232.12248	23.54205	-219.60007	333.04370	26.08686	-145.98663	-308.31299	24.42356	316.80917	247.98755	27.86330	353.32236	81.16966	805.76550	-362.24896	-3.82716	546.16815	-347.89087	151.32109	550.88208	-329.80411	-114.72852	559.16577	528.63287	32.99818	559.37701	548.34308	
889	8.880	-232.24232	23.56874	-219.59804	332.96899	26.15695	-146.03348	-308.28818	24.39664	316.77051	248.05083	27.93750	353.30591	80.92128	805.81476	-362.27136	-4.24223	546.23096	-347.99106	151.02034	550.92004	-329.79828	-115.00366	559.21466	528.60925	32.38061	559.44348	547.93549	
